<?xml version="1.0" standalone="no"?>
<!DOCTYPE svg PUBLIC "-//W3C//DTD SVG 20010904//EN"
 "http://www.w3.org/TR/2001/REC-SVG-20010904/DTD/svg10.dtd">
<svg version="1.0" xmlns="http://www.w3.org/2000/svg"
 width="1024.000000pt" height="1024.000000pt" viewBox="0 0 1024.000000 1024.000000"
 preserveAspectRatio="xMidYMid meet">
<metadata>
Created by potrace 1.14, written by Peter Selinger 2001-2017
</metadata>
<g transform="translate(0.000000,1024.000000) scale(0.100000,-0.100000)"
fill="#000000" stroke="none">
<path d="M0 5120 l0 -5120 5120 0 5120 0 0 5120 0 5120 -5120 0 -5120 0 0
-5120z m5296 2689 c544 -52 1063 -289 1467 -668 246 -231 497 -612 606 -921
40 -111 46 -120 76 -120 46 0 259 -60 364 -103 719 -292 1129 -1090 942 -1831
-106 -416 -380 -755 -780 -960 -100 -51 -283 -126 -307 -126 -2 0 -4 110 -4
244 l0 244 65 30 c221 104 404 280 506 487 79 162 93 227 93 445 1 172 -1 192
-27 284 -52 188 -144 350 -274 486 -98 103 -183 167 -303 229 -167 86 -302
119 -538 130 l-135 6 -41 160 c-47 182 -95 311 -167 450 -296 577 -859 975
-1509 1066 -133 19 -429 16 -555 -5 -293 -49 -563 -154 -794 -308 -106 -71
-161 -117 -274 -227 -176 -172 -289 -326 -403 -553 l-63 -126 -58 -7 c-391
-44 -662 -170 -905 -423 -232 -241 -360 -541 -375 -882 -12 -293 65 -567 234
-823 59 -90 256 -288 345 -347 l67 -45 1 -257 c0 -142 -3 -258 -7 -258 -5 0
-53 23 -108 51 -610 309 -996 937 -995 1622 1 631 311 1195 848 1542 156 100
416 207 578 237 64 11 69 14 93 56 265 448 599 762 1046 985 387 193 856 279
1291 236z m-567 -2519 c66 -37 102 -89 137 -198 l31 -97 234 -5 c231 -5 235
-5 291 -33 67 -33 121 -90 157 -166 l26 -56 0 -725 0 -725 -23 -57 c-29 -73
-96 -141 -170 -176 l-57 -27 -1055 0 -1055 0 -55 26 c-66 32 -123 86 -158 154
l-27 50 0 750 0 750 24 50 c32 63 93 124 156 156 48 23 61 24 285 29 l235 5
31 91 c36 107 64 155 106 185 66 47 81 49 473 46 l370 -2 44 -25z m2220 -734
c248 -248 342 -348 338 -360 -5 -13 -24 -16 -107 -16 l-101 0 3 -427 3 -428
29 -59 c17 -35 60 -92 103 -136 40 -43 73 -82 73 -89 0 -9 -114 -11 -457 -9
l-458 3 -57 27 c-73 34 -137 98 -174 174 l-29 59 -5 440 -5 440 -98 3 c-78 2
-99 6 -104 18 -4 11 95 116 338 360 189 189 348 344 354 344 6 0 165 -155 354
-344z"/>
<path d="M4201 4490 c-25 -5 -77 -25 -117 -44 -192 -91 -304 -317 -261 -528
49 -243 235 -399 477 -400 317 -1 554 301 475 605 -57 218 -230 361 -450 372
-44 2 -100 0 -124 -5z"/>
</g>
</svg>
